<svg width="172px" height="92px" x="0px" y="0px" viewBox="0 0 172 92" xmlns="http://www.w3.org/2000/svg" version="1.1" style="transform: translate(0,0)"><rect x="0" y="0" width="172" height="92" style="fill:transparent;"/><g transform="translate(10, 10)" style="fill:#000000;"><rect x="0" y="0" width="3" height="50"/><rect x="4.5" y="0" width="1.5" height="50"/><rect x="9" y="0" width="4.5" height="50"/><rect x="16.5" y="0" width="3" height="50"/><rect x="21" y="0" width="4.5" height="50"/><rect x="28.5" y="0" width="1.5" height="50"/><rect x="33" y="0" width="4.5" height="50"/><rect x="39" y="0" width="1.5" height="50"/><rect x="42" y="0" width="3" height="50"/><rect x="49.5" y="0" width="1.5" height="50"/><rect x="52.5" y="0" width="1.5" height="50"/><rect x="57" y="0" width="3" height="50"/><rect x="66" y="0" width="3" height="50"/><rect x="72" y="0" width="4.5" height="50"/><rect x="78" y="0" width="1.5" height="50"/><rect x="82.5" y="0" width="4.5" height="50"/><rect x="88.5" y="0" width="1.5" height="50"/><rect x="91.5" y="0" width="6" height="50"/><rect x="99" y="0" width="4.5" height="50"/><rect x="105" y="0" width="1.5" height="50"/><rect x="109.5" y="0" width="3" height="50"/><rect x="115.5" y="0" width="4.5" height="50"/><rect x="121.5" y="0" width="3" height="50"/><rect x="127.5" y="0" width="1.5" height="50"/><rect x="132" y="0" width="3" height="50"/><rect x="139.5" y="0" width="4.5" height="50"/><rect x="145.5" y="0" width="1.5" height="50"/><rect x="148.5" y="0" width="3" height="50"/><text style="font: 20px monospace" text-anchor="middle" x="76" y="72">215463228</text></g></svg>